<svg width="435" height="435" viewBox="0 0 435 435" fill="none" xmlns="http://www.w3.org/2000/svg">
<path d="M304.615 297.666L285.576 278.628" stroke="black" stroke-width="0.71"/>
<path d="M230.724 283.465V307.34" stroke="black" stroke-width="0.71"/>
<path d="M164.861 272.35L146.439 290.771" stroke="black" stroke-width="0.71"/>
<path d="M140.984 168.82L165.683 193.519" stroke="black" stroke-width="0.71"/>
<path d="M293.5 151.737L318.302 126.935" stroke="black" stroke-width="0.71"/>
<path d="M230.495 284.274C268.96 284.274 300.142 253.092 300.142 214.627C300.142 176.163 268.96 144.981 230.495 144.981C192.03 144.981 160.849 176.163 160.849 214.627C160.849 253.092 192.03 284.274 230.495 284.274Z" fill="white" stroke="black" stroke-width="0.71"/>
<path d="M193.059 156.059C96.2108 132.298 306.759 360.687 288.561 253.208" stroke="black" stroke-width="0.71"/>
<path d="M162.802 198.048C56.5962 245.799 400.546 253.003 298.441 199.077" stroke="black" stroke-width="0.71"/>
<path d="M290.001 178.288C333.676 70.3422 80.9877 304.44 192.028 272.762" stroke="black" stroke-width="0.71"/>
<path d="M311.633 312.621C318.01 312.621 323.18 307.452 323.18 301.075C323.18 294.697 318.01 289.528 311.633 289.528C305.256 289.528 300.086 294.697 300.086 301.075C300.086 307.452 305.256 312.621 311.633 312.621Z" fill="#3C39C6"/>
<path d="M143.394 307.616C150.277 306.499 154.952 300.013 153.835 293.13C152.717 286.246 146.232 281.572 139.348 282.689C132.465 283.806 127.79 290.292 128.908 297.175C130.025 304.058 136.51 308.733 143.394 307.616Z" fill="#3C39C6"/>
<path d="M132.061 172.212C139.164 172.212 144.922 166.454 144.922 159.351C144.922 152.248 139.164 146.49 132.061 146.49C124.958 146.49 119.2 152.248 119.2 159.351C119.2 166.454 124.958 172.212 132.061 172.212Z" fill="#3C39C6"/>
<path d="M323.18 132.317C328.909 132.317 333.553 127.673 333.553 121.944C333.553 116.215 328.909 111.571 323.18 111.571C317.451 111.571 312.807 116.215 312.807 121.944C312.807 127.673 317.451 132.317 323.18 132.317Z" fill="#3C39C6"/>
<path d="M230.858 323.429C235.889 323.429 239.967 319.35 239.967 314.319C239.967 309.288 235.889 305.21 230.858 305.21C225.827 305.21 221.748 309.288 221.748 314.319C221.748 319.35 225.827 323.429 230.858 323.429Z" fill="#3C39C6"/>
<path d="M333.755 247.386L337.039 252.368L342.945 253.269L337.971 256.559L337.071 262.473L333.771 257.492L327.881 256.59L332.855 253.285L333.755 247.386Z" fill="#231F20"/>
<path d="M333.409 164.592L335.734 170.622L335.791 170.769L335.937 170.826L341.952 173.152L335.939 175.437L335.791 175.493L335.734 175.641L333.409 181.671L331.084 175.641L331.027 175.493L330.88 175.437L324.908 173.152L330.882 170.825L331.028 170.769L331.084 170.622L333.409 164.592Z" stroke="black" stroke-width="0.71"/>
<path d="M101.543 216.909L103.868 222.939L103.925 223.085L104.071 223.142L110.086 225.469L104.073 227.753L103.925 227.809L103.868 227.957L101.543 233.987L99.2177 227.957L99.1609 227.81L99.0133 227.753L93.0414 225.469L99.0153 223.142L99.1613 223.085L99.2177 222.939L101.543 216.909Z" stroke="black" stroke-width="0.71"/>
<path d="M113.863 235.447L114.86 238.033L114.916 238.179L115.063 238.236L117.638 239.232L115.065 240.21L114.917 240.266L114.86 240.414L113.863 243L112.866 240.414L112.809 240.267L112.661 240.21L110.105 239.232L112.663 238.236L112.809 238.179L112.866 238.033L113.863 235.447Z" stroke="black" stroke-width="0.71"/>
<path d="M162.819 115.658L165.476 122.548L172.354 125.208L165.476 127.821L162.819 134.71L160.163 127.821L153.332 125.208L160.163 122.548L162.819 115.658Z" fill="#3C39C6"/>
<path d="M181.82 293.167L183.797 298.292L188.914 300.271L183.797 302.215L181.82 307.34L179.844 302.215L174.763 300.271L179.844 298.292L181.82 293.167Z" fill="#3C39C6"/>
<path d="M319.508 186.433L320.758 189.673L323.993 190.925L320.758 192.154L319.508 195.394L318.259 192.154L315.046 190.925L318.259 189.673L319.508 186.433Z" fill="#3C39C6"/>
</svg>
